<svg xmlns="http://www.w3.org/2000/svg" xmlns:xlink="http://www.w3.org/1999/xlink" viewBox="0 0 500 500" width="191" height="191" preserveAspectRatio="xMidYMid meet" style="width: 100%; height: 100%; transform: translate3d(0px, 0px, 0px); content-visibility: visible;"><defs><clipPath id="__lottie_element_60"><rect width="500" height="500" x="0" y="0"/></clipPath></defs><g clip-path="url(#__lottie_element_60)"><g transform="matrix(1,0,0,1,114.86600494384766,110.5670166015625)" opacity="1" style="display: block;"><g opacity="1" transform="matrix(1,0,0,1,122.33100128173828,24.934999465942383)"><path stroke-linecap="round" stroke-linejoin="round" fill-opacity="0" stroke="rgb(2,64,103)" stroke-opacity="1" stroke-width="5.695" d=" M71.74400329589844,-0.052000001072883606 C71.74400329589844,-0.052000001072883606 71.74400329589844,0.004999999888241291 71.74400329589844,0.004999999888241291 C71.74400329589844,0.004999999888241291 71.70999908447266,0.3140000104904175 71.70999908447266,0.3140000104904175 C71.60800170898438,0.8500000238418579 71.25399780273438,1.3639999628067017 70.6500015258789,1.8660000562667847 C70.57099914550781,1.934000015258789 70.47899627685547,2.013000011444092 70.38800048828125,2.0820000171661377 C70.2969970703125,2.1500000953674316 70.19499969482422,2.2190001010894775 70.10299682617188,2.2880001068115234 C69.375,2.7790000438690186 68.44000244140625,3.257999897003174 67.3010025024414,3.7139999866485596 C66.6510009765625,3.9660000801086426 65.95700073242188,4.2270002365112305 65.18199920654297,4.4670000076293945 C65.15899658203125,4.478000164031982 65.14800262451172,4.479000091552734 65.13600158691406,4.489999771118164 C64.53199768066406,4.684000015258789 63.91699981689453,4.866000175476074 63.244998931884766,5.047999858856201 C63.108001708984375,5.093999862670898 62.983001708984375,5.129000186920166 62.856998443603516,5.163000106811523 C62.49300003051758,5.265999794006348 62.117000579833984,5.35699987411499 61.72999954223633,5.460000038146973 C61.55799865722656,5.50600004196167 61.38800048828125,5.539999961853027 61.21699905395508,5.585999965667725 C60.965999603271484,5.64300012588501 60.70399856567383,5.699999809265137 60.45399856567383,5.756999969482422 C60.12300109863281,5.835999965667725 59.814998626708984,5.90500020980835 59.49599838256836,5.973999977111816 C58.13999938964844,6.2820000648498535 56.68199920654297,6.566999912261963 55.14400100708008,6.8520002365112305 C54.4379997253418,6.978000164031982 53.720001220703125,7.091000080108643 52.96799850463867,7.2170000076293945 C52.625999450683594,7.26200008392334 52.28499984741211,7.329999923706055 51.930999755859375,7.375999927520752 C51.577999114990234,7.433000087738037 51.224998474121094,7.489999771118164 50.86000061035156,7.535999774932861 C50.58700180053711,7.581999778747559 50.3129997253418,7.626999855041504 50.02799987792969,7.660999774932861 C49.84600067138672,7.684000015258789 49.67599868774414,7.718999862670898 49.50400161743164,7.742000102996826 C49.117000579833984,7.797999858856201 48.71799850463867,7.843999862670898 48.33100128173828,7.901000022888184 C47.66999816894531,7.992000102996826 46.974998474121094,8.095999717712402 46.26900100708008,8.163999557495117 C45.83599853515625,8.232999801635742 45.42599868774414,8.277999877929688 44.992000579833984,8.335000038146973 C44.63999938964844,8.369999885559082 44.2859992980957,8.414999961853027 43.93299865722656,8.449000358581543 C43.180999755859375,8.539999961853027 42.39500045776367,8.630999565124512 41.60900115966797,8.711000442504883 C41.50699996948242,8.711000442504883 41.415000915527344,8.734999656677246 41.32400131225586,8.746000289916992 C39.81999969482422,8.906000137329102 38.28200149536133,9.055000305175781 36.698001861572266,9.20300006866455 C34.77299880981445,9.36299991607666 32.790000915527344,9.522000312805176 30.761999130249023,9.659000396728516 C29.509000778198242,9.75 28.222000122070312,9.829999923706055 26.92300033569336,9.90999984741211 C18.606000900268555,10.423999786376953 9.524999618530273,10.697999954223633 0.012000000104308128,10.697999954223633 C-20.66699981689453,10.697999954223633 -39.30699920654297,9.395999908447266 -52.39799880981445,7.307000160217285 C-57.11399841308594,6.554999828338623 -61.125,5.699999809265137 -64.23500061035156,4.776000022888184 C-69.04299926757812,3.3380000591278076 -71.74400329589844,1.715999960899353 -71.74400329589844,0.004999999888241291 C-71.74400329589844,-1.559000015258789 -69.4990005493164,-3.0409998893737793 -65.46600341796875,-4.375999927520752 C-62.59400177001953,-5.334000110626221 -58.823001861572266,-6.2129998207092285 -54.31100082397461,-7 C-41.152000427246094,-9.260000228881836 -21.691999435424805,-10.697999954223633 0.012000000104308128,-10.697999954223633 C8.989999771118164,-10.697999954223633 17.60300064086914,-10.446999549865723 25.533000946044922,-9.991000175476074 C34.86399841308594,4.454999923706055 48.992000579833984,8.210000038146973 57.50199890136719,3.8970000743865967 C60.65800094604492,2.299999952316284 63.45000076293945,-0.5879999995231628 65.39800262451172,-4.409999847412109 C65.61399841308594,-4.3420000076293945 65.83100128173828,-4.26200008392334 66.03600311279297,-4.193999767303467 C67.01599884033203,-3.8519999980926514 67.88200378417969,-3.4860000610351562 68.62300109863281,-3.119999885559082 C69.03299713134766,-2.9260001182556152 69.39700317382812,-2.7330000400543213 69.71600341796875,-2.5390000343322754 C69.89900207519531,-2.4130001068115234 70.08100128173828,-2.2990000247955322 70.23999786376953,-2.184999942779541 C70.37699890136719,-2.0940001010894775 70.49099731445312,-1.9910000562667847 70.6050033569336,-1.9110000133514404 C71.322998046875,-1.3179999589920044 71.72100067138672,-0.6800000071525574 71.74400329589844,-0.052000001072883606z"/></g><g opacity="1" transform="matrix(1,0,0,1,122.19499969482422,351.0270080566406)"><path stroke-linecap="round" stroke-linejoin="round" fill-opacity="0" stroke="rgb(2,64,103)" stroke-opacity="1" stroke-width="5.705" d=" M59.82699966430664,-5.806000232696533 C57.13999938964844,0.24300000071525574 33.04199981689453,5.806000232696533 0,5.806000232696533 C-33.04100036621094,5.806000232696533 -57.801998138427734,0.0860000029206276 -59.82699966430664,-5.806000232696533"/></g><g opacity="1" transform="matrix(1,0,0,1,122.19499969482422,121.88400268554688)"><path stroke-linecap="round" stroke-linejoin="round" fill-opacity="0" stroke="rgb(2,64,103)" stroke-opacity="1" stroke-width="5.705" d=" M90.93099975585938,-71.1449966430664 C101.69100189208984,-50.48099899291992 107.93199920654297,-24.805999755859375 107.93199920654297,-2.760999917984009 C107.93199920654297,58.617000579833984 59.60900115966797,96.95500183105469 0,96.95500183105469 C-59.608001708984375,96.95500183105469 -107.93199920654297,58.617000579833984 -107.93199920654297,-2.760999917984009 C-107.93199920654297,-35.645999908447266 -94.04499816894531,-76.61000061035156 -72,-96.95500183105469"/></g><g opacity="1" transform="matrix(1,0,0,1,0,0)"><path stroke-linecap="round" stroke-linejoin="round" fill-opacity="0" stroke="rgb(2,64,103)" stroke-opacity="1" stroke-width="5.705" d=" M122.19499969482422,218.84100341796875 C122.19499969482422,218.84100341796875 122.19499969482422,310.5350036621094 122.19499969482422,310.5350036621094"/></g><g opacity="1" transform="matrix(1,0,0,1,122.19499969482422,327.7489929199219)"><path stroke-linecap="round" stroke-linejoin="round" fill-opacity="0" stroke="rgb(2,64,103)" stroke-opacity="1" stroke-width="5.705" d=" M59.82699966430664,17.21500015258789 C59.82699966430664,17.21500015258789 0,-17.21500015258789 0,-17.21500015258789 C0,-17.21500015258789 -59.82699966430664,17.21500015258789 -59.82699966430664,17.21500015258789"/></g><g opacity="1" transform="matrix(1,0,0,1,144.51600646972656,334.4739990234375)"><path stroke-linecap="round" stroke-linejoin="round" fill-opacity="0" stroke="rgb(2,64,103)" stroke-opacity="1" stroke-width="5.705" d=" M4.480000019073486,2.6480000019073486 C4.480000019073486,2.6480000019073486 -4.480000019073486,-2.6480000019073486 -4.480000019073486,-2.6480000019073486"/></g><g opacity="1" transform="matrix(1,0,0,1,158.50799560546875,342.7460021972656)"><path stroke-linecap="round" stroke-linejoin="round" fill-opacity="0" stroke="rgb(2,64,103)" stroke-opacity="1" stroke-width="5.705" d=" M0.41600000858306885,0.2460000067949295 C0.41600000858306885,0.2460000067949295 -0.41600000858306885,-0.2460000067949295 -0.41600000858306885,-0.2460000067949295"/></g></g><g transform="matrix(1,0,0,1,143.71400451660156,165.50198364257812)" opacity="1" style="display: block;"><g opacity="1" transform="matrix(1,0,0,1,93.34700012207031,80.77899932861328)"><path fill="rgb(248,142,129)" fill-opacity="1" d=" M-82.38300323486328,-68.29199981689453 C-89.01899719238281,-52.323001861572266 -93.09700012207031,-33.73899841308594 -93.09700012207031,-16.58799934387207 C-93.09700012207031,33.38800048828125 -54.81399917602539,68.29199981689453 0,68.29199981689453 C54.81399917602539,68.29199981689453 93.09700012207031,33.38800048828125 93.09700012207031,-16.58799934387207 C93.09700012207031,-33.73899841308594 89.0199966430664,-52.323001861572266 82.38300323486328,-68.29199981689453 C82.38300323486328,-68.29199981689453 -82.38300323486328,-68.29199981689453 -82.38300323486328,-68.29199981689453z"/></g><g opacity="1" transform="matrix(1,0,0,1,93.34300231933594,12.48799991607666)"><path fill="rgb(237,109,109)" fill-opacity="1" d=" M82.33399963378906,0.004000000189989805 C82.33399963378906,0.004000000189989805 82.29900360107422,0.367000013589859 82.29900360107422,0.367000013589859 C82.18399810791016,0.9679999947547913 81.76899719238281,1.559000015258789 81.08799743652344,2.132999897003174 C80.99099731445312,2.2130000591278076 80.88500213623047,2.299999952316284 80.77899932861328,2.380000114440918 C80.67400360107422,2.4590001106262207 80.55799865722656,2.5390000343322754 80.44400024414062,2.618000030517578 C79.62300109863281,3.174999952316284 78.54499816894531,3.7239999771118164 77.22899627685547,4.254000186920166 C76.47799682617188,4.553999900817871 75.64800262451172,4.854000091552734 74.74700164794922,5.13700008392334 C74.06700134277344,5.357999801635742 73.34200286865234,5.567999839782715 72.58300018310547,5.78000020980835 C72.43299865722656,5.824999809265137 72.28199768066406,5.861000061035156 72.13200378417969,5.90500020980835 C71.71700286865234,6.019999980926514 71.28399658203125,6.135000228881836 70.84200286865234,6.241000175476074 C70.36499786376953,6.363999843597412 69.87100219726562,6.479000091552734 69.36699676513672,6.593999862670898 C69.00599670410156,6.683000087738037 68.64299774169922,6.76200008392334 68.27200317382812,6.841000080108643 C66.01100158691406,7.34499979019165 63.51100158691406,7.811999797821045 60.79100036621094,8.253999710083008 C60.402000427246094,8.3149995803833 60.005001068115234,8.378000259399414 59.597999572753906,8.4399995803833 C59.19200134277344,8.51099967956543 58.7859992980957,8.571000099182129 58.36199951171875,8.625 C58.053001403808594,8.678000450134277 57.73500061035156,8.732000350952148 57.40800094604492,8.767000198364258 C57.2140007019043,8.802000045776367 57.01100158691406,8.82800006866455 56.80799865722656,8.854000091552734 C56.36600112915039,8.916000366210938 55.915000915527344,8.977999687194824 55.46500015258789,9.039999961853027 C54.69599914550781,9.145000457763672 53.902000427246094,9.251999855041504 53.097999572753906,9.348999977111816 C52.61199951171875,9.41100025177002 52.125999450683594,9.472999572753906 51.63100051879883,9.53499984741211 C51.23400115966797,9.579999923706055 50.827999114990234,9.623000144958496 50.422000885009766,9.668000221252441 C49.547000885009766,9.77400016784668 48.654998779296875,9.869999885559082 47.744998931884766,9.967000007629395 C47.638999938964844,9.97599983215332 47.53300094604492,9.994999885559082 47.426998138427734,10.003000259399414 C34.01900100708008,11.407999992370605 17.660999298095703,12.237000465393066 0.004000000189989805,12.237000465393066 C-45.465999603271484,12.237000465393066 -82.33399963378906,6.761000156402588 -82.33399963378906,0.004000000189989805 C-82.33399963378906,-3.4809999465942383 -72.5270004272461,-6.626999855041504 -56.79199981689453,-8.857000350952148 C-42.016998291015625,-10.951000213623047 -22.014999389648438,-12.237000465393066 0.004000000189989805,-12.237000465393066 C16.92799949645996,-12.237000465393066 32.667999267578125,-11.479000091552734 45.749000549316406,-10.170999526977539 C62.619998931884766,-8.493000030517578 75.08200073242188,-5.913000106811523 80.01100158691406,-2.8919999599456787 C80.2229995727539,-2.759999990463257 80.4260025024414,-2.628000020980835 80.61100006103516,-2.496000051498413 C80.76200103759766,-2.390000104904175 80.89399719238281,-2.2829999923706055 81.0270004272461,-2.177000045776367 C81.88300323486328,-1.4700000286102295 82.33399963378906,-0.7379999756813049 82.33399963378906,0.004000000189989805z"/></g></g><g transform="matrix(1,0,0,1,155.08099365234375,188.010986328125)" opacity="1" style="display: block;"><g opacity="1" transform="matrix(1,0,0,1,15.303999900817871,58.27000045776367)"><path stroke-linecap="round" stroke-linejoin="round" fill-opacity="0" stroke="rgb(2,64,103)" stroke-opacity="1" stroke-width="4.564" d=" M0,3.8940000534057617 C0,3.8940000534057617 0,3.8940000534057617 0,3.8940000534057617 C-2.1419999599456787,3.8940000534057617 -3.8940000534057617,2.1429998874664307 -3.8940000534057617,0.0010000000474974513 C-3.8940000534057617,-2.1410000324249268 -2.1419999599456787,-3.8940000534057617 0,-3.8940000534057617 C2.1419999599456787,-3.8940000534057617 3.8940000534057617,-2.1410000324249268 3.8940000534057617,0.0010000000474974513 C3.8940000534057617,2.1429998874664307 2.1419999599456787,3.8940000534057617 0,3.8940000534057617z"/></g><g opacity="1" transform="matrix(1,0,0,1,130.4499969482422,11.60200023651123)"><path stroke-linecap="round" stroke-linejoin="round" fill-opacity="0" stroke="rgb(2,64,103)" stroke-opacity="1" stroke-width="3.46" d=" M0,2.9519999027252197 C0,2.9519999027252197 0,2.9519999027252197 0,2.9519999027252197 C-1.6239999532699585,2.9519999027252197 -2.9519999027252197,1.6239999532699585 -2.9519999027252197,0 C-2.9519999027252197,-1.6239999532699585 -1.6239999532699585,-2.9519999027252197 0,-2.9519999027252197 C1.6239999532699585,-2.9519999027252197 2.9519999027252197,-1.6239999532699585 2.9519999027252197,0 C2.9519999027252197,1.6239999532699585 1.6239999532699585,2.9519999027252197 0,2.9519999027252197z"/></g><g opacity="1" transform="matrix(1,0,0,1,85.87699890136719,115.27100372314453)"><path stroke-linecap="round" stroke-linejoin="round" fill-opacity="0" stroke="rgb(2,64,103)" stroke-opacity="1" stroke-width="4.564" d=" M0,3.8949999809265137 C0,3.8949999809265137 0,3.8949999809265137 0,3.8949999809265137 C-2.1419999599456787,3.8949999809265137 -3.8940000534057617,2.1429998874664307 -3.8940000534057617,0.0010000000474974513 C-3.8940000534057617,-2.1410000324249268 -2.1419999599456787,-3.8949999809265137 0,-3.8949999809265137 C2.1419999599456787,-3.8949999809265137 3.8940000534057617,-2.1410000324249268 3.8940000534057617,0.0010000000474974513 C3.8940000534057617,2.1429998874664307 2.1419999599456787,3.8949999809265137 0,3.8949999809265137z"/></g></g><g transform="matrix(1,0,0,1,201.3040008544922,186.19500732421875)" opacity="1" style="display: block;"><g opacity="1" transform="matrix(1,0,0,1,36.1870002746582,36.1870002746582)"><path stroke-linecap="round" stroke-linejoin="round" fill-opacity="0" stroke="rgb(2,64,103)" stroke-opacity="1" stroke-width="5.789" d=" M-0.20600000023841858,20.506000518798828 C-0.20600000023841858,20.506000518798828 -4.741000175476074,19.95199966430664 -4.741000175476074,19.95199966430664 C-14.619999885559082,18.743999481201172 -21.71500015258789,9.67300033569336 -20.506999969482422,-0.20600000023841858 C-20.506999969482422,-0.20600000023841858 -19.95199966430664,-4.739999771118164 -19.95199966430664,-4.739999771118164 C-18.743999481201172,-14.619000434875488 -9.67300033569336,-21.71500015258789 0.20600000023841858,-20.506999969482422 C0.20600000023841858,-20.506999969482422 4.739999771118164,-19.95199966430664 4.739999771118164,-19.95199966430664 C14.619000434875488,-18.743999481201172 21.71500015258789,-9.673999786376953 20.506999969482422,0.20600000023841858 C20.506999969482422,0.20600000023841858 19.95199966430664,4.739999771118164 19.95199966430664,4.739999771118164 C18.7450008392334,14.619000434875488 9.67300033569336,21.714000701904297 -0.20600000023841858,20.506000518798828z"/></g><g opacity="1" transform="matrix(1,0,0,1,43.250999450683594,30.393999099731445)"><path stroke-linecap="round" stroke-linejoin="round" fill-opacity="0" stroke="rgb(2,64,103)" stroke-opacity="1" stroke-width="5.789" d=" M1.496000051498413,1.5850000381469727 C1.496000051498413,1.5850000381469727 1.5390000343322754,1.1410000324249268 1.5390000343322754,1.1410000324249268 C1.6929999589920044,-0.12200000137090683 0.7860000133514404,-1.281999945640564 -0.47699999809265137,-1.4359999895095825 C-0.47699999809265137,-1.4359999895095825 -1.6929999589920044,-1.5850000381469727 -1.6929999589920044,-1.5850000381469727"/></g><g opacity="1" transform="matrix(1,0,0,1,43.97700119018555,42.202999114990234)"><path stroke-linecap="round" stroke-linejoin="round" fill-opacity="0" stroke="rgb(2,64,103)" stroke-opacity="1" stroke-width="5.789" d=" M-0.029999999329447746,0.18000000715255737 C-0.029999999329447746,0.18000000715255737 0.029999999329447746,-0.18000000715255737 0.029999999329447746,-0.18000000715255737"/></g></g><g transform="matrix(1,0,0,1,222.54798889160156,196.15399169921875)" opacity="1" style="display: block;"><g opacity="1" transform="matrix(1,0,0,1,55.19599914550781,56.66899871826172)"><path fill="rgb(237,109,109)" fill-opacity="1" d=" M18.72800064086914,17.858999252319336 C5.103000164031982,32.444000244140625 -17.76799964904785,33.22200012207031 -32.35300064086914,19.597000122070312 C-18.27400016784668,4.5269999504089355 8.677000045776367,-24.322999954223633 16.989999771118164,-33.22200012207031 C31.575000762939453,-19.597000122070312 32.35300064086914,3.2739999294281006 18.72800064086914,17.858999252319336z"/><path stroke-linecap="round" stroke-linejoin="round" fill-opacity="0" stroke="rgb(2,64,103)" stroke-opacity="1" stroke-width="5.705" d=" M18.72800064086914,17.858999252319336 C5.103000164031982,32.444000244140625 -17.76799964904785,33.22200012207031 -32.35300064086914,19.597000122070312 C-18.27400016784668,4.5269999504089355 8.677000045776367,-24.322999954223633 16.989999771118164,-33.22200012207031 C31.575000762939453,-19.597000122070312 32.35300064086914,3.2739999294281006 18.72800064086914,17.858999252319336z"/></g><g opacity="1" transform="matrix(1,0,0,1,57.86800003051758,59.03900146484375)"><path stroke-linecap="round" stroke-linejoin="round" fill-opacity="0" stroke="rgb(2,64,103)" stroke-opacity="1" stroke-width="5.705" d=" M-43.60599899291992,26.41200065612793 C-43.60599899291992,26.41200065612793 22.89900016784668,-44.777000427246094 22.89900016784668,-44.777000427246094 C42.55699920654297,-26.413000106811523 43.60599899291992,4.410999774932861 25.240999221801758,24.06999969482422 C6.875999927520752,43.72800064086914 -23.947999954223633,44.777000427246094 -43.60599899291992,26.41200065612793z"/></g><g opacity="1" transform="matrix(1,0,0,1,60.36000061035156,61.856998443603516)"><path stroke-linecap="round" stroke-linejoin="round" fill-opacity="0" stroke="rgb(2,64,103)" stroke-opacity="1" stroke-width="5.705" d=" M-12.845000267028809,-12.00100040435791 C-12.845000267028809,-12.00100040435791 12.845000267028809,12.00100040435791 12.845000267028809,12.00100040435791"/></g><g opacity="1" transform="matrix(1,0,0,1,65.08399963378906,49.25899887084961)"><path stroke-linecap="round" stroke-linejoin="round" fill-opacity="0" stroke="rgb(2,64,103)" stroke-opacity="1" stroke-width="5.705" d=" M-17.569000244140625,0.5979999899864197 C-17.569000244140625,0.5979999899864197 17.569000244140625,-0.5979999899864197 17.569000244140625,-0.5979999899864197"/></g><g opacity="1" transform="matrix(1,0,0,1,48.112998962402344,67.4260025024414)"><path stroke-linecap="round" stroke-linejoin="round" fill-opacity="0" stroke="rgb(2,64,103)" stroke-opacity="1" stroke-width="5.705" d=" M-0.5979999899864197,-17.569000244140625 C-0.5979999899864197,-17.569000244140625 0.5979999899864197,17.569000244140625 0.5979999899864197,17.569000244140625"/></g></g><g transform="matrix(1,0,0,1,235.84698486328125,54.30500030517578)" opacity="1" style="display: block;"><g opacity="1" transform="matrix(1,0,0,1,42.98699951171875,51.93899917602539)"><path fill="rgb(120,206,138)" fill-opacity="1" d=" M23.858999252319336,24.84600067138672 C21.908000946044922,28.66900062561035 19.11199951171875,31.555999755859375 15.951000213623047,33.15299987792969 C7.427999973297119,37.465999603271484 -6.7210001945495605,33.7130012512207 -16.066999435424805,19.26799964904785 C-18.46299934387207,15.581999778747559 -20.540000915527344,11.175999641418457 -22.125,6.040999889373779 C-28.514999389648438,-14.668999671936035 -19.797000885009766,-37.46699905395508 -19.797000885009766,-37.46699905395508 C-19.797000885009766,-37.46699905395508 3.183000087738037,-30.711999893188477 16.648000717163086,-13.583999633789062 C28.332000732421875,1.2719999551773071 28.514999389648438,15.718000411987305 23.858999252319336,24.84600067138672z"/><path stroke-linecap="round" stroke-linejoin="round" fill-opacity="0" stroke="rgb(2,64,103)" stroke-opacity="1" stroke-width="5.789" d=" M23.858999252319336,24.84600067138672 C21.908000946044922,28.66900062561035 19.11199951171875,31.555999755859375 15.951000213623047,33.15299987792969 C7.427999973297119,37.465999603271484 -6.7210001945495605,33.7130012512207 -16.066999435424805,19.26799964904785 C-18.46299934387207,15.581999778747559 -20.540000915527344,11.175999641418457 -22.125,6.040999889373779 C-28.514999389648438,-14.668999671936035 -19.797000885009766,-37.46699905395508 -19.797000885009766,-37.46699905395508 C-19.797000885009766,-37.46699905395508 3.183000087738037,-30.711999893188477 16.648000717163086,-13.583999633789062 C28.332000732421875,1.2719999551773071 28.514999389648438,15.718000411987305 23.858999252319336,24.84600067138672z"/></g><g opacity="1" transform="matrix(1,0,0,1,41.44599914550781,50.391998291015625)"><path stroke-linecap="round" stroke-linejoin="round" fill-opacity="0" stroke="rgb(2,64,103)" stroke-opacity="1" stroke-width="5.789" d=" M-17.493999481201172,-34.698001861572266 C-17.493999481201172,-34.698001861572266 17.493999481201172,34.698001861572266 17.493999481201172,34.698001861572266"/></g><g opacity="1" transform="matrix(1,0,0,1,42.13199996948242,34.51100158691406)"><path stroke-linecap="round" stroke-linejoin="round" fill-opacity="0" stroke="rgb(2,64,103)" stroke-opacity="1" stroke-width="5.789" d=" M-4.426000118255615,8.35200023651123 C-4.426000118255615,8.35200023651123 4.426000118255615,-8.35200023651123 4.426000118255615,-8.35200023651123"/></g><g opacity="1" transform="matrix(1,0,0,1,56.83100128173828,56.08700180053711)"><path stroke-linecap="round" stroke-linejoin="round" fill-opacity="0" stroke="rgb(2,64,103)" stroke-opacity="1" stroke-width="5.789" d=" M-6.039999961853027,11.395999908447266 C-6.039999961853027,11.395999908447266 6.039999961853027,-11.395999908447266 6.039999961853027,-11.395999908447266"/></g><g opacity="1" transform="matrix(1,0,0,1,28.236000061035156,41.54600143432617)"><path stroke-linecap="round" stroke-linejoin="round" fill-opacity="0" stroke="rgb(2,64,103)" stroke-opacity="1" stroke-width="5.789" d=" M9.35200023651123,1.3769999742507935 C9.35200023651123,1.3769999742507935 -9.35200023651123,-1.3769999742507935 -9.35200023651123,-1.3769999742507935"/></g><g opacity="1" transform="matrix(1,0,0,1,36.92300033569336,66.16500091552734)"><path stroke-linecap="round" stroke-linejoin="round" fill-opacity="0" stroke="rgb(2,64,103)" stroke-opacity="1" stroke-width="5.789" d=" M12.76099967956543,1.878999948501587 C12.76099967956543,1.878999948501587 -12.76099967956543,-1.878999948501587 -12.76099967956543,-1.878999948501587"/></g></g><g transform="matrix(1,0,0,1,308.92999267578125,56.33599090576172)" opacity="1" style="display: block;"><g opacity="1" transform="matrix(1,0,0,1,37.60300064086914,40.59199905395508)"><path fill="rgb(120,206,138)" fill-opacity="1" d=" M-9.413999557495117,-12.430000305175781 C-23.340999603271484,1.2769999504089355 -20.464000701904297,16.517000198364258 -13.222999572753906,21.42300033569336 C-5.98199987411499,26.329999923706055 8.85200023651123,22.847000122070312 16.805999755859375,5.339000225067139 C23.340999603271484,-9.043000221252441 19.135000228881836,-26.32900047302246 19.135000228881836,-26.32900047302246 C19.135000228881836,-26.32900047302246 1.9049999713897705,-23.56999969482422 -9.413999557495117,-12.430000305175781z"/><path stroke-linecap="round" stroke-linejoin="round" fill-opacity="0" stroke="rgb(2,64,103)" stroke-opacity="1" stroke-width="5.705" d=" M-9.413999557495117,-12.430000305175781 C-23.340999603271484,1.2769999504089355 -20.464000701904297,16.517000198364258 -13.222999572753906,21.42300033569336 C-5.98199987411499,26.329999923706055 8.85200023651123,22.847000122070312 16.805999755859375,5.339000225067139 C23.340999603271484,-9.043000221252441 19.135000228881836,-26.32900047302246 19.135000228881836,-26.32900047302246 C19.135000228881836,-26.32900047302246 1.9049999713897705,-23.56999969482422 -9.413999557495117,-12.430000305175781z"/></g><g opacity="1" transform="matrix(1,0,0,1,40.22999954223633,38.542999267578125)"><path fill="rgb(255,226,219)" fill-opacity="1" d=" M15.850000381469727,-23.47100067138672 C15.850000381469727,-23.47100067138672 -15.850000381469727,23.47100067138672 -15.850000381469727,23.47100067138672"/><path stroke-linecap="round" stroke-linejoin="round" fill-opacity="0" stroke="rgb(2,64,103)" stroke-opacity="1" stroke-width="4.846" d=" M15.850000381469727,-23.47100067138672 C15.850000381469727,-23.47100067138672 -15.850000381469727,23.47100067138672 -15.850000381469727,23.47100067138672"/></g><g opacity="1" transform="matrix(1,0,0,1,41.19900131225586,26.999000549316406)"><path fill="rgb(255,226,219)" fill-opacity="1" d=" M2.430000066757202,6.447000026702881 C2.430000066757202,6.447000026702881 -2.430000066757202,-6.447000026702881 -2.430000066757202,-6.447000026702881"/><path stroke-linecap="round" stroke-linejoin="round" fill-opacity="0" stroke="rgb(2,64,103)" stroke-opacity="1" stroke-width="4.846" d=" M2.430000066757202,6.447000026702881 C2.430000066757202,6.447000026702881 -2.430000066757202,-6.447000026702881 -2.430000066757202,-6.447000026702881"/></g><g opacity="1" transform="matrix(1,0,0,1,28.677000045776367,41.494998931884766)"><path fill="rgb(255,226,219)" fill-opacity="1" d=" M3.4110000133514404,9.050000190734863 C3.4110000133514404,9.050000190734863 -3.4110000133514404,-9.050000190734863 -3.4110000133514404,-9.050000190734863"/><path stroke-linecap="round" stroke-linejoin="round" fill-opacity="0" stroke="rgb(2,64,103)" stroke-opacity="1" stroke-width="4.846" d=" M3.4110000133514404,9.050000190734863 C3.4110000133514404,9.050000190734863 -3.4110000133514404,-9.050000190734863 -3.4110000133514404,-9.050000190734863"/></g><g opacity="1" transform="matrix(1,0,0,1,50.59700012207031,33.367000579833984)"><path fill="rgb(255,226,219)" fill-opacity="1" d=" M-6.888000011444092,0.13300000131130219 C-6.888000011444092,0.13300000131130219 6.888000011444092,-0.13300000131130219 6.888000011444092,-0.13300000131130219"/><path stroke-linecap="round" stroke-linejoin="round" fill-opacity="0" stroke="rgb(2,64,103)" stroke-opacity="1" stroke-width="4.846" d=" M-6.888000011444092,0.13300000131130219 C-6.888000011444092,0.13300000131130219 6.888000011444092,-0.13300000131130219 6.888000011444092,-0.13300000131130219"/></g><g opacity="1" transform="matrix(1,0,0,1,42.04499816894531,50.3650016784668)"><path fill="rgb(255,226,219)" fill-opacity="1" d=" M-9.39900016784668,0.1809999942779541 C-9.39900016784668,0.1809999942779541 9.39900016784668,-0.1809999942779541 9.39900016784668,-0.1809999942779541"/><path stroke-linecap="round" stroke-linejoin="round" fill-opacity="0" stroke="rgb(2,64,103)" stroke-opacity="1" stroke-width="4.846" d=" M-9.39900016784668,0.1809999942779541 C-9.39900016784668,0.1809999942779541 9.39900016784668,-0.1809999942779541 9.39900016784668,-0.1809999942779541"/></g></g><g transform="matrix(1,0,0,1,264.6260070800781,75.94999694824219)" opacity="1" style="display: block;"><g opacity="1" transform="matrix(1,0,0,1,46.11399841308594,61.17100143432617)"><path stroke-linecap="round" stroke-linejoin="round" fill-opacity="0" stroke="rgb(2,64,103)" stroke-opacity="1" stroke-width="5.705" d=" M0.6850000023841858,0.6790000200271606 C0.23999999463558197,0.22300000488758087 -0.21699999272823334,-0.23399999737739563 -0.6850000023841858,-0.6790000200271606"/></g><g opacity="1" transform="matrix(1,0,0,1,56.74100112915039,54.6619987487793)"><path fill="rgb(255,240,225)" fill-opacity="1" d=" M22.2810001373291,12.020000457763672 C22.2810001373291,12.020000457763672 26.56399917602539,38.05400085449219 26.56399917602539,38.05400085449219 C26.783000946044922,39.387001037597656 25.388999938964844,40.400001525878906 24.18899917602539,39.77899932861328 C24.18899917602539,39.77899932861328 6.861999988555908,30.81599998474121 6.861999988555908,30.81599998474121 C6.706999778747559,30.736000061035156 6.581999778747559,30.610000610351562 6.500999927520752,30.457000732421875 C4.61899995803833,26.84600067138672 2.5840001106262207,23.38800048828125 0.42899999022483826,20.128000259399414 C-0.5640000104904175,18.632999420166016 -1.5789999961853027,17.18400001525879 -2.628999948501587,15.779999732971191 C-3.872999906539917,14.102999687194824 -5.151000022888184,12.494000434875488 -6.4629998207092285,10.96500015258789 C-7.353000164031982,9.927000045776367 -8.265999794006348,8.934000015258789 -9.178999900817871,7.964000225067139 C-9.418999671936035,7.7129998207092285 -9.668999671936035,7.461999893188477 -9.920999526977539,7.210999965667725 C-9.920999526977539,7.210999965667725 -9.942999839782715,7.188000202178955 -9.942999839782715,7.188000202178955 C-9.942999839782715,7.188000202178955 -11.312000274658203,5.829999923706055 -11.312000274658203,5.829999923706055 C-11.642999649047852,5.511000156402588 -11.986000061035156,5.190999984741211 -12.317000389099121,4.882999897003174 C-12.317000389099121,4.882999897003174 -12.317000389099121,4.894000053405762 -12.317000389099121,4.894000053405762 C-12.317000389099121,4.894000053405762 -12.35099983215332,5.203000068664551 -12.35099983215332,5.203000068664551 C-12.45300006866455,5.738999843597412 -12.807000160217285,6.251999855041504 -13.411999702453613,6.754000186920166 C-13.491999626159668,6.822999954223633 -13.583000183105469,6.9029998779296875 -13.675000190734863,6.9720001220703125 C-13.765999794006348,7.039000034332275 -13.869000434875488,7.107999801635742 -13.960000038146973,7.177000045776367 C-14.6899995803833,7.666999816894531 -15.62600040435791,8.147000312805176 -16.767000198364258,8.602999687194824 C-17.41699981689453,8.854000091552734 -18.113000869750977,9.116999626159668 -18.888999938964844,9.355999946594238 C-18.91200065612793,9.366999626159668 -18.92300033569336,9.366999626159668 -18.934999465942383,9.378999710083008 C-19.538999557495117,9.572999954223633 -20.1560001373291,9.755999565124512 -20.82900047302246,9.937999725341797 C-20.965999603271484,9.982999801635742 -21.091999053955078,10.017999649047852 -21.216999053955078,10.052000045776367 C-21.58799934387207,10.156000137329102 -21.97100067138672,10.24899959564209 -22.364999771118164,10.354000091552734 C-22.666000366210938,10.27400016784668 -22.909000396728516,10.208999633789062 -23.209999084472656,10.128999710083008 C-23.209999084472656,10.128999710083008 -36.632999420166016,-3.127000093460083 -36.632999420166016,-3.127000093460083 C-36.632999420166016,-3.127000093460083 -41.51900100708008,-7.959000110626221 -41.51900100708008,-7.959000110626221 C-42.479000091552734,-8.909000396728516 -41.94599914550781,-10.54699993133545 -40.611000061035156,-10.75 C-40.611000061035156,-10.75 -14.526000022888184,-14.718000411987305 -14.526000022888184,-14.718000411987305 C-13.99899959564209,-14.79800033569336 -13.543999671936035,-15.128999710083008 -13.305000305175781,-15.604999542236328 C-13.305000305175781,-15.604999542236328 -1.4620000123977661,-39.19300079345703 -1.4620000123977661,-39.19300079345703 C-0.8550000190734863,-40.400001525878906 0.8679999709129333,-40.400001525878906 1.4739999771118164,-39.19200134277344 C1.4739999771118164,-39.19200134277344 13.307000160217285,-15.604999542236328 13.307000160217285,-15.604999542236328 C13.545999526977539,-15.128999710083008 14.00100040435791,-14.79800033569336 14.527999877929688,-14.718000411987305 C14.527999877929688,-14.718000411987305 40.61000061035156,-10.75100040435791 40.61000061035156,-10.75100040435791 C41.94599914550781,-10.54699993133545 42.479000091552734,-8.907999992370605 41.518001556396484,-7.959000110626221 C41.518001556396484,-7.959000110626221 22.746999740600586,10.585000038146973 22.746999740600586,10.585000038146973 C22.368000030517578,10.958999633789062 22.19499969482422,11.494000434875488 22.2810001373291,12.020000457763672z"/><path stroke-linecap="round" stroke-linejoin="round" fill-opacity="0" stroke="rgb(2,64,103)" stroke-opacity="1" stroke-width="5.705" d=" M22.2810001373291,12.020000457763672 C22.2810001373291,12.020000457763672 26.56399917602539,38.05400085449219 26.56399917602539,38.05400085449219 C26.783000946044922,39.387001037597656 25.388999938964844,40.400001525878906 24.18899917602539,39.77899932861328 C24.18899917602539,39.77899932861328 6.861999988555908,30.81599998474121 6.861999988555908,30.81599998474121 C6.706999778747559,30.736000061035156 6.581999778747559,30.610000610351562 6.500999927520752,30.457000732421875 C4.61899995803833,26.84600067138672 2.5840001106262207,23.38800048828125 0.42899999022483826,20.128000259399414 C-0.5640000104904175,18.632999420166016 -1.5789999961853027,17.18400001525879 -2.628999948501587,15.779999732971191 C-3.872999906539917,14.102999687194824 -5.151000022888184,12.494000434875488 -6.4629998207092285,10.96500015258789 C-7.353000164031982,9.927000045776367 -8.265999794006348,8.934000015258789 -9.178999900817871,7.964000225067139 C-9.418999671936035,7.7129998207092285 -9.668999671936035,7.461999893188477 -9.920999526977539,7.210999965667725 C-9.920999526977539,7.210999965667725 -9.942999839782715,7.188000202178955 -9.942999839782715,7.188000202178955 C-9.942999839782715,7.188000202178955 -11.312000274658203,5.829999923706055 -11.312000274658203,5.829999923706055 C-11.642999649047852,5.511000156402588 -11.986000061035156,5.190999984741211 -12.317000389099121,4.882999897003174 C-12.317000389099121,4.882999897003174 -12.317000389099121,4.894000053405762 -12.317000389099121,4.894000053405762 C-12.317000389099121,4.894000053405762 -12.35099983215332,5.203000068664551 -12.35099983215332,5.203000068664551 C-12.45300006866455,5.738999843597412 -12.807000160217285,6.251999855041504 -13.411999702453613,6.754000186920166 C-13.491999626159668,6.822999954223633 -13.583000183105469,6.9029998779296875 -13.675000190734863,6.9720001220703125 C-13.765999794006348,7.039000034332275 -13.869000434875488,7.107999801635742 -13.960000038146973,7.177000045776367 C-14.6899995803833,7.666999816894531 -15.62600040435791,8.147000312805176 -16.767000198364258,8.602999687194824 C-17.41699981689453,8.854000091552734 -18.113000869750977,9.116999626159668 -18.888999938964844,9.355999946594238 C-18.91200065612793,9.366999626159668 -18.92300033569336,9.366999626159668 -18.934999465942383,9.378999710083008 C-19.538999557495117,9.572999954223633 -20.1560001373291,9.755999565124512 -20.82900047302246,9.937999725341797 C-20.965999603271484,9.982999801635742 -21.091999053955078,10.017999649047852 -21.216999053955078,10.052000045776367 C-21.58799934387207,10.156000137329102 -21.97100067138672,10.24899959564209 -22.364999771118164,10.354000091552734 C-22.666000366210938,10.27400016784668 -22.909000396728516,10.208999633789062 -23.209999084472656,10.128999710083008 C-23.209999084472656,10.128999710083008 -36.632999420166016,-3.127000093460083 -36.632999420166016,-3.127000093460083 C-36.632999420166016,-3.127000093460083 -41.51900100708008,-7.959000110626221 -41.51900100708008,-7.959000110626221 C-42.479000091552734,-8.909000396728516 -41.94599914550781,-10.54699993133545 -40.611000061035156,-10.75 C-40.611000061035156,-10.75 -14.526000022888184,-14.718000411987305 -14.526000022888184,-14.718000411987305 C-13.99899959564209,-14.79800033569336 -13.543999671936035,-15.128999710083008 -13.305000305175781,-15.604999542236328 C-13.305000305175781,-15.604999542236328 -1.4620000123977661,-39.19300079345703 -1.4620000123977661,-39.19300079345703 C-0.8550000190734863,-40.400001525878906 0.8679999709129333,-40.400001525878906 1.4739999771118164,-39.19200134277344 C1.4739999771118164,-39.19200134277344 13.307000160217285,-15.604999542236328 13.307000160217285,-15.604999542236328 C13.545999526977539,-15.128999710083008 14.00100040435791,-14.79800033569336 14.527999877929688,-14.718000411987305 C14.527999877929688,-14.718000411987305 40.61000061035156,-10.75100040435791 40.61000061035156,-10.75100040435791 C41.94599914550781,-10.54699993133545 42.479000091552734,-8.907999992370605 41.518001556396484,-7.959000110626221 C41.518001556396484,-7.959000110626221 22.746999740600586,10.585000038146973 22.746999740600586,10.585000038146973 C22.368000030517578,10.958999633789062 22.19499969482422,11.494000434875488 22.2810001373291,12.020000457763672z"/></g><g opacity="1" transform="matrix(1,0,0,1,56.74300003051758,56.56700134277344)"><path stroke-linecap="round" stroke-linejoin="round" fill-opacity="0" stroke="rgb(2,64,103)" stroke-opacity="1" stroke-width="4.846" d=" M-13.119999885559082,3.744999885559082 C-13.119999885559082,3.744999885559082 -16.243999481201172,0.6779999732971191 -16.243999481201172,0.6779999732971191 C-16.243999481201172,0.6779999732971191 -21.36199951171875,-4.383999824523926 -21.36199951171875,-4.383999824523926 C-21.6560001373291,-4.675000190734863 -21.493000030517578,-5.176000118255615 -21.083999633789062,-5.23799991607666 C-21.083999633789062,-5.23799991607666 -7.145999908447266,-7.355000019073486 -7.145999908447266,-7.355000019073486 C-6.984000205993652,-7.380000114440918 -6.843999862670898,-7.480999946594238 -6.770999908447266,-7.626999855041504 C-6.770999908447266,-7.626999855041504 -0.4440000057220459,-20.225000381469727 -0.4440000057220459,-20.225000381469727 C-0.257999986410141,-20.5939998626709 0.26899999380111694,-20.5939998626709 0.45500001311302185,-20.224000930786133 C0.45500001311302185,-20.224000930786133 6.770999908447266,-7.626999855041504 6.770999908447266,-7.626999855041504 C6.843999862670898,-7.480999946594238 6.984000205993652,-7.380000114440918 7.144999980926514,-7.355000019073486 C7.144999980926514,-7.355000019073486 21.083999633789062,-5.23799991607666 21.083999633789062,-5.23799991607666 C21.492000579833984,-5.176000118255615 21.655000686645508,-4.673999786376953 21.361000061035156,-4.383999824523926 C21.361000061035156,-4.383999824523926 11.32800006866455,5.520999908447266 11.32800006866455,5.520999908447266 C11.211000442504883,5.636000156402588 11.159000396728516,5.800000190734863 11.185999870300293,5.960999965667725 C11.185999870300293,5.960999965667725 13.479000091552734,19.875999450683594 13.479000091552734,19.875999450683594 C13.54699993133545,20.284000396728516 13.119000434875488,20.5939998626709 12.75100040435791,20.40399932861328 C12.75100040435791,20.40399932861328 0.003000000026077032,13.802000045776367 0.003000000026077032,13.802000045776367 C0.003000000026077032,13.802000045776367 -1.9780000448226929,14.822999954223633 -1.9780000448226929,14.822999954223633"/></g></g><g transform="matrix(0.9396926164627075,0.3420201539993286,-0.3420201539993286,0.9396926164627075,199.2720184326172,-261.2515869140625)" opacity="1" style="display: block;"><g opacity="1" transform="matrix(1,0,0,1,39.96500015258789,166.177001953125)"><path fill="rgb(255,240,225)" fill-opacity="1" d=" M15.54699993133545,72.12000274658203 C15.54699993133545,72.12000274658203 4.2270002365112305,73.63800048828125 4.2270002365112305,73.63800048828125 C4.2270002365112305,73.63800048828125 -15.54699993133545,-73.63800048828125 -15.54699993133545,-73.63800048828125 C-12.432000160217285,-72.71399688720703 -8.414999961853027,-71.85800170898438 -3.691999912261963,-71.1050033569336 C-3.691999912261963,-71.1050033569336 15.54699993133545,72.12000274658203 15.54699993133545,72.12000274658203z"/><path stroke-linecap="round" stroke-linejoin="round" fill-opacity="0" stroke="rgb(2,64,103)" stroke-opacity="1" stroke-width="5.705" d=" M15.54699993133545,72.12000274658203 C15.54699993133545,72.12000274658203 4.2270002365112305,73.63800048828125 4.2270002365112305,73.63800048828125 C4.2270002365112305,73.63800048828125 -15.54699993133545,-73.63800048828125 -15.54699993133545,-73.63800048828125 C-12.432000160217285,-72.71399688720703 -8.414999961853027,-71.85800170898438 -3.691999912261963,-71.1050033569336 C-3.691999912261963,-71.1050033569336 15.54699993133545,72.12000274658203 15.54699993133545,72.12000274658203z"/></g><g opacity="1" transform="matrix(1,0,0,1,25.26799964904785,54.66699981689453)"><path fill="rgb(255,240,225)" fill-opacity="1" d=" M11.005999565124512,40.40399932861328 C6.2820000648498535,39.6510009765625 2.265000104904175,38.79600143432617 -0.8500000238418579,37.87200164794922 C-0.8500000238418579,37.87200164794922 -1.4889999628067017,33.09000015258789 -1.4889999628067017,33.09000015258789 C-1.4889999628067017,33.09000015258789 -2.0829999446868896,28.72100067138672 -2.0829999446868896,28.72100067138672 C-2.0829999446868896,28.72100067138672 -4.13700008392334,13.385000228881836 -4.13700008392334,13.385000228881836 C-4.13700008392334,13.385000228881836 -7.205999851226807,-9.493000030517578 -7.205999851226807,-9.493000030517578 C-7.205999851226807,-9.493000030517578 -11.005999565124512,-38.887001037597656 -11.005999565124512,-38.887001037597656 C-11.005999565124512,-38.887001037597656 0.2919999957084656,-40.40399932861328 0.2919999957084656,-40.40399932861328 C0.2919999957084656,-40.40399932861328 4.182000160217285,-10.406000137329102 4.182000160217285,-10.406000137329102 C4.182000160217285,-10.406000137329102 7.0229997634887695,10.782999992370605 7.0229997634887695,10.782999992370605 C7.0229997634887695,10.782999992370605 9.08899974822998,26.09600067138672 9.08899974822998,26.09600067138672 C9.08899974822998,26.09600067138672 10.024999618530273,33.09000015258789 10.024999618530273,33.09000015258789 C10.024999618530273,33.09000015258789 11.005999565124512,40.40399932861328 11.005999565124512,40.40399932861328z"/><path stroke-linecap="round" stroke-linejoin="round" fill-opacity="0" stroke="rgb(2,64,103)" stroke-opacity="1" stroke-width="5.705" d=" M11.005999565124512,40.40399932861328 C6.2820000648498535,39.6510009765625 2.265000104904175,38.79600143432617 -0.8500000238418579,37.87200164794922 C-0.8500000238418579,37.87200164794922 -1.4889999628067017,33.09000015258789 -1.4889999628067017,33.09000015258789 C-1.4889999628067017,33.09000015258789 -2.0829999446868896,28.72100067138672 -2.0829999446868896,28.72100067138672 C-2.0829999446868896,28.72100067138672 -4.13700008392334,13.385000228881836 -4.13700008392334,13.385000228881836 C-4.13700008392334,13.385000228881836 -7.205999851226807,-9.493000030517578 -7.205999851226807,-9.493000030517578 C-7.205999851226807,-9.493000030517578 -11.005999565124512,-38.887001037597656 -11.005999565124512,-38.887001037597656 C-11.005999565124512,-38.887001037597656 0.2919999957084656,-40.40399932861328 0.2919999957084656,-40.40399932861328 C0.2919999957084656,-40.40399932861328 4.182000160217285,-10.406000137329102 4.182000160217285,-10.406000137329102 C4.182000160217285,-10.406000137329102 7.0229997634887695,10.782999992370605 7.0229997634887695,10.782999992370605 C7.0229997634887695,10.782999992370605 9.08899974822998,26.09600067138672 9.08899974822998,26.09600067138672 C9.08899974822998,26.09600067138672 10.024999618530273,33.09000015258789 10.024999618530273,33.09000015258789 C10.024999618530273,33.09000015258789 11.005999565124512,40.40399932861328 11.005999565124512,40.40399932861328z"/></g><g opacity="1" transform="matrix(1,0,0,1,30.326000213623047,96.03299713134766)"><path stroke-linecap="round" stroke-linejoin="round" fill-opacity="0" stroke="rgb(2,64,103)" stroke-opacity="1" stroke-width="5.705" d=" M-4.493000030517578,5.489999771118164 C-4.493000030517578,5.489999771118164 4.493000030517578,-5.489999771118164 4.493000030517578,-5.489999771118164"/></g><g opacity="1" transform="matrix(1,0,0,1,35.07600021362305,126.7020034790039)"><path stroke-linecap="round" stroke-linejoin="round" fill-opacity="0" stroke="rgb(2,64,103)" stroke-opacity="1" stroke-width="5.705" d=" M-4.493000030517578,5.489999771118164 C-4.493000030517578,5.489999771118164 4.493000030517578,-5.489999771118164 4.493000030517578,-5.489999771118164"/></g><g opacity="1" transform="matrix(1,0,0,1,38.814998626708984,157.36500549316406)"><path stroke-linecap="round" stroke-linejoin="round" fill-opacity="0" stroke="rgb(2,64,103)" stroke-opacity="1" stroke-width="5.705" d=" M-4.49399995803833,5.489999771118164 C-4.49399995803833,5.489999771118164 4.49399995803833,-5.489999771118164 4.49399995803833,-5.489999771118164"/></g><g opacity="1" transform="matrix(1,0,0,1,42.5890007019043,187.33799743652344)"><path stroke-linecap="round" stroke-linejoin="round" fill-opacity="0" stroke="rgb(2,64,103)" stroke-opacity="1" stroke-width="5.705" d=" M-4.49399995803833,5.489999771118164 C-4.49399995803833,5.489999771118164 4.49399995803833,-5.489999771118164 4.49399995803833,-5.489999771118164"/></g><g opacity="1" transform="matrix(1,0,0,1,47.08100128173828,218.88600158691406)"><path stroke-linecap="round" stroke-linejoin="round" fill-opacity="0" stroke="rgb(2,64,103)" stroke-opacity="1" stroke-width="5.705" d=" M-4.49399995803833,5.489999771118164 C-4.49399995803833,5.489999771118164 4.49399995803833,-5.489999771118164 4.49399995803833,-5.489999771118164"/></g><g opacity="1" transform="matrix(1,0,0,1,22.44700050354004,34.7599983215332)"><path stroke-linecap="round" stroke-linejoin="round" fill-opacity="0" stroke="rgb(2,64,103)" stroke-opacity="1" stroke-width="5.705" d=" M-4.49399995803833,5.489999771118164 C-4.49399995803833,5.489999771118164 4.49399995803833,-5.489999771118164 4.49399995803833,-5.489999771118164"/></g><g opacity="1" transform="matrix(1,0,0,1,26.89900016784668,65.38700103759766)"><path stroke-linecap="round" stroke-linejoin="round" fill-opacity="0" stroke="rgb(2,64,103)" stroke-opacity="1" stroke-width="5.705" d=" M-4.49399995803833,5.489999771118164 C-4.49399995803833,5.489999771118164 4.49399995803833,-5.489999771118164 4.49399995803833,-5.489999771118164"/></g><g opacity="1" transform="matrix(1,0,0,1,0,0)"><path fill="rgb(255,240,225)" fill-opacity="1" d=" M-297.4469909667969,144.26199340820312"/><path stroke-linecap="butt" stroke-linejoin="miter" fill-opacity="0" stroke-miterlimit="4" stroke="rgb(2,64,103)" stroke-opacity="1" stroke-width="5.705" d=" M-297.4469909667969,144.26199340820312"/></g></g></g></svg>